<svg xmlns="http://www.w3.org/2000/svg" xmlns:xlink="http://www.w3.org/1999/xlink" width="500" zoomAndPan="magnify" viewBox="0 0 375 374.999991" height="500" preserveAspectRatio="xMidYMid meet" version="1.0"><defs><g/><clipPath id="725ade0627"><path d="M 129.675781 91.488281 L 245.175781 91.488281 L 245.175781 176.636719 L 129.675781 176.636719 Z M 129.675781 91.488281 " clip-rule="nonzero"/></clipPath></defs><g clip-path="url(#725ade0627)"><path fill="#f1f1f1" d="M 229.03125 111.675781 L 227.292969 111.675781 C 224.039062 107.515625 213.277344 103.246094 198.128906 101.699219 C 198.40625 101.453125 198.566406 101.105469 198.566406 100.71875 C 198.566406 99.972656 197.957031 99.367188 197.210938 99.367188 L 193.121094 99.367188 L 193.121094 97.761719 C 193.121094 94.308594 190.292969 91.488281 186.8125 91.488281 C 183.265625 91.488281 180.375 94.363281 180.375 97.871094 L 180.375 99.367188 L 177.777344 99.367188 C 177.023438 99.367188 176.410156 99.972656 176.410156 100.71875 C 176.410156 101.105469 176.59375 101.453125 176.863281 101.699219 C 161.71875 103.25 150.941406 107.515625 147.695312 111.675781 L 145.957031 111.675781 L 145.957031 114.882812 L 229.019531 114.882812 L 229.019531 111.675781 Z M 157.59375 111.933594 L 151.9375 111.933594 C 154.851562 107.953125 168.199219 104.664062 172.277344 104.25 C 167.359375 105.519531 157.59375 111.933594 157.59375 111.933594 Z M 190.410156 101.167969 C 189.910156 101.152344 189.425781 101.125 188.914062 101.109375 L 188.914062 101.070312 C 188.429688 101.074219 187.96875 101.085938 187.5 101.097656 C 187.023438 101.085938 186.566406 101.074219 186.078125 101.074219 L 186.078125 101.113281 C 185.070312 101.128906 184.085938 101.183594 183.097656 101.238281 L 183.097656 97.867188 C 183.097656 95.832031 184.765625 94.175781 186.816406 94.175781 C 188.800781 94.175781 190.410156 95.777344 190.410156 97.753906 Z M 242.808594 121.632812 C 242.363281 121.605469 234.382812 121.082031 226.238281 124.480469 C 226.222656 123.097656 226.207031 121.714844 226.15625 120.277344 C 229.035156 119.765625 229.035156 119.765625 229.035156 119.765625 L 229.035156 116.90625 L 145.96875 116.90625 L 145.96875 119.765625 C 145.96875 119.765625 145.96875 119.765625 148.855469 120.277344 C 148.796875 121.714844 148.777344 123.097656 148.753906 124.480469 C 140.617188 121.082031 132.636719 121.605469 132.191406 121.632812 C 130.695312 121.742188 129.570312 123.042969 129.683594 124.519531 C 129.785156 126 131.070312 127.105469 132.589844 127.023438 C 132.6875 126.996094 141.183594 126.472656 148.765625 130.464844 C 149.328125 156.910156 156.433594 170.992188 158.703125 173.253906 C 161.089844 174.273438 166.589844 175.011719 172.316406 175.539062 C 171.195312 172.199219 171.597656 170.417969 171.597656 170.417969 C 171.667969 172.148438 173.316406 173.566406 173.316406 173.566406 C 171.765625 169.480469 174.136719 165.316406 174.136719 165.316406 C 174.136719 165.316406 173.4375 168.371094 175.316406 168.542969 C 177.53125 168.738281 176.996094 163.398438 176.996094 163.398438 C 178 165.0625 178.625 167.792969 176.996094 173.867188 C 176.816406 174.546875 176.730469 175.230469 176.695312 175.902344 C 177.042969 175.929688 177.382812 175.953125 177.722656 175.976562 C 177.726562 174.570312 178.085938 173.40625 178.445312 172.460938 C 179.457031 169.804688 183.152344 168.523438 183.152344 168.523438 C 181.398438 172.832031 185.632812 171.632812 185.632812 171.632812 C 189.507812 169.527344 184.988281 165.128906 184.53125 163.398438 C 184.0625 161.652344 186 159.917969 186 159.917969 C 185.257812 162.933594 187.289062 164.585938 189.226562 166.78125 C 191.0625 168.875 192.59375 171.898438 189.089844 176.601562 C 189.617188 176.625 189.929688 176.636719 189.929688 176.636719 L 189.929688 176.414062 C 192.136719 176.304688 194.910156 176.144531 197.832031 175.9375 C 197.503906 173.859375 196.554688 171.476562 194.46875 168.957031 C 187.867188 160.96875 190.457031 155.972656 193.460938 152.546875 C 196.476562 149.132812 199.640625 146.558594 198.480469 141.859375 C 198.480469 141.859375 201.503906 144.566406 200.773438 147.285156 C 200.0625 149.980469 193.019531 156.828125 199.050781 160.113281 C 199.050781 160.113281 205.652344 161.980469 202.925781 155.265625 C 202.925781 155.265625 208.679688 157.257812 210.253906 161.402344 C 211.394531 164.378906 212.496094 168.699219 209.074219 174.824219 C 209.96875 174.699219 210.824219 174.570312 211.625 174.433594 C 212.941406 170.988281 213.5 167.3125 212.511719 163.585938 C 209.976562 154.128906 210.949219 149.878906 212.511719 147.285156 C 212.511719 147.285156 211.675781 155.601562 215.125 155.292969 C 218.058594 155.03125 216.96875 150.269531 216.96875 150.269531 C 216.96875 150.269531 220.660156 156.761719 218.242188 163.125 C 218.242188 163.125 220.808594 160.910156 220.921875 158.222656 C 220.921875 158.222656 222.082031 162.953125 217.355469 171.84375 C 220.246094 167.257812 225.746094 153.589844 226.234375 130.464844 C 233.824219 126.46875 242.304688 126.996094 242.417969 127.023438 C 243.921875 127.105469 245.214844 126 245.308594 124.519531 C 245.421875 123.046875 244.308594 121.742188 242.808594 121.632812 Z M 152.074219 119.039062 L 157.058594 119.039062 C 157.058594 119.039062 156.492188 157.507812 162.375 170.554688 C 161.015625 169.664062 150.601562 160.4375 152.074219 119.039062 Z M 152.074219 119.039062 " fill-opacity="1" fill-rule="nonzero"/></g><g fill="#f1f1f1" fill-opacity="1"><g transform="translate(18.996097, 235.342909)"><g><path d="M 23.296875 -19.921875 L 14.625 -19.921875 L 14.625 -25.03125 C 14.625 -25.757812 14.207031 -26.125 13.375 -26.125 L 11.640625 -26.125 C 10.816406 -26.125 10.40625 -25.757812 10.40625 -25.03125 L 10.40625 -6.796875 C 10.40625 -6.066406 10.816406 -5.703125 11.640625 -5.703125 L 13.375 -5.703125 C 14.207031 -5.703125 14.625 -6.066406 14.625 -6.796875 L 14.625 -11.703125 L 23.296875 -11.703125 L 23.296875 -6.140625 C 23.296875 -2.046875 20.867188 0 16.015625 0 L 9.015625 0 C 4.160156 0 1.734375 -2.046875 1.734375 -6.140625 L 1.734375 -25.671875 C 1.734375 -29.765625 4.160156 -31.8125 9.015625 -31.8125 L 16.015625 -31.8125 C 20.867188 -31.8125 23.296875 -29.765625 23.296875 -25.671875 Z M 23.296875 -19.921875 "/></g></g></g><g fill="#f1f1f1" fill-opacity="1"><g transform="translate(43.527628, 235.342909)"><g><path d="M 9.125 -31.8125 L 16.453125 -31.8125 C 21.304688 -31.8125 23.734375 -29.765625 23.734375 -25.671875 L 23.734375 -6.140625 C 23.734375 -2.046875 21.304688 0 16.453125 0 L 9.125 0 C 4.257812 0 1.828125 -2.046875 1.828125 -6.140625 L 1.828125 -25.671875 C 1.828125 -29.765625 4.257812 -31.8125 9.125 -31.8125 Z M 15.0625 -7.28125 L 15.0625 -24.53125 C 15.0625 -25.257812 14.648438 -25.625 13.828125 -25.625 L 11.75 -25.625 C 10.914062 -25.625 10.5 -25.257812 10.5 -24.53125 L 10.5 -7.28125 C 10.5 -6.550781 10.914062 -6.1875 11.75 -6.1875 L 13.828125 -6.1875 C 14.648438 -6.1875 15.0625 -6.550781 15.0625 -7.28125 Z M 15.0625 -7.28125 "/></g></g></g><g fill="#f1f1f1" fill-opacity="1"><g transform="translate(69.099884, 235.342909)"><g><path d="M 9.71875 0 L 1.984375 0 L 1.984375 -31.8125 L 11.453125 -31.8125 L 16.609375 -14.8125 L 21.765625 -31.8125 L 31.21875 -31.8125 L 31.21875 0 L 23.546875 0 L 23.546875 -20.21875 L 19.578125 -6.890625 L 13.625 -6.890625 L 9.71875 -20.125 Z M 9.71875 0 "/></g></g></g><g fill="#f1f1f1" fill-opacity="1"><g transform="translate(102.304171, 235.342909)"><g><path d="M 1.984375 -31.8125 L 10.65625 -31.8125 L 10.65625 0 L 1.984375 0 Z M 1.984375 -31.8125 "/></g></g></g><g fill="#f1f1f1" fill-opacity="1"><g transform="translate(114.941629, 235.342909)"><g><path d="M 2.484375 -31.8125 L 17.09375 -31.8125 C 21.957031 -31.8125 24.390625 -29.765625 24.390625 -25.671875 L 24.390625 -6.140625 C 24.390625 -2.046875 21.957031 0 17.09375 0 L 2.484375 0 Z M 15.71875 -6.796875 L 15.71875 -25.03125 C 15.71875 -25.757812 15.300781 -26.125 14.46875 -26.125 L 11.15625 -26.125 L 11.15625 -5.703125 L 14.46875 -5.703125 C 15.300781 -5.703125 15.71875 -6.066406 15.71875 -6.796875 Z M 15.71875 -6.796875 "/></g></g></g><g fill="#f1f1f1" fill-opacity="1"><g transform="translate(141.158153, 235.342909)"><g><path d="M 18.1875 0 L 17.203125 -4.765625 L 9.5625 -4.765625 L 8.53125 0 L 0 0 L 8.171875 -31.8125 L 18.734375 -31.8125 L 26.90625 0 Z M 10.90625 -10.90625 L 15.859375 -10.90625 L 13.4375 -22.359375 Z M 10.90625 -10.90625 "/></g></g></g><g fill="#f1f1f1" fill-opacity="1"><g transform="translate(168.068498, 235.342909)"><g/></g></g><g fill="#f1f1f1" fill-opacity="1"><g transform="translate(177.980226, 235.342909)"><g><path d="M 18.1875 0 L 17.203125 -4.765625 L 9.5625 -4.765625 L 8.53125 0 L 0 0 L 8.171875 -31.8125 L 18.734375 -31.8125 L 26.90625 0 Z M 10.90625 -10.90625 L 15.859375 -10.90625 L 13.4375 -22.359375 Z M 10.90625 -10.90625 "/></g></g></g><g fill="#f1f1f1" fill-opacity="1"><g transform="translate(204.890571, 235.342909)"><g><path d="M 10.65625 -6.1875 L 20.515625 -6.1875 L 20.515625 0 L 1.984375 0 L 1.984375 -31.8125 L 10.65625 -31.8125 Z M 10.65625 -6.1875 "/></g></g></g><g fill="#f1f1f1" fill-opacity="1"><g transform="translate(225.407858, 235.342909)"><g/></g></g><g fill="#f1f1f1" fill-opacity="1"><g transform="translate(235.319585, 235.342909)"><g><path d="M 21.15625 -31.8125 L 21.15625 -25.625 L 15.015625 -25.625 L 15.015625 0 L 6.34375 0 L 6.34375 -25.625 L 0.25 -25.625 L 0.25 -31.8125 Z M 21.15625 -31.8125 "/></g></g></g><g fill="#f1f1f1" fill-opacity="1"><g transform="translate(256.728916, 235.342909)"><g><path d="M 9.125 -31.8125 L 16.453125 -31.8125 C 21.304688 -31.8125 23.734375 -29.765625 23.734375 -25.671875 L 23.734375 -6.140625 C 23.734375 -2.046875 21.304688 0 16.453125 0 L 9.125 0 C 4.257812 0 1.828125 -2.046875 1.828125 -6.140625 L 1.828125 -25.671875 C 1.828125 -29.765625 4.257812 -31.8125 9.125 -31.8125 Z M 15.0625 -7.28125 L 15.0625 -24.53125 C 15.0625 -25.257812 14.648438 -25.625 13.828125 -25.625 L 11.75 -25.625 C 10.914062 -25.625 10.5 -25.257812 10.5 -24.53125 L 10.5 -7.28125 C 10.5 -6.550781 10.914062 -6.1875 11.75 -6.1875 L 13.828125 -6.1875 C 14.648438 -6.1875 15.0625 -6.550781 15.0625 -7.28125 Z M 15.0625 -7.28125 "/></g></g></g><g fill="#f1f1f1" fill-opacity="1"><g transform="translate(282.301172, 235.342909)"><g><path d="M 9.125 0 C 4.257812 0 1.828125 -2.046875 1.828125 -6.140625 L 1.828125 -25.671875 C 1.828125 -29.765625 4.257812 -31.8125 9.125 -31.8125 L 16.453125 -31.8125 C 21.304688 -31.8125 23.734375 -29.765625 23.734375 -25.671875 L 23.734375 -6.140625 C 23.734375 -4.097656 23.125 -2.5625 21.90625 -1.53125 L 26.515625 3.375 L 16.65625 3.375 L 13.53125 0 Z M 10.5 -24.53125 L 10.5 -7.28125 C 10.5 -6.550781 10.914062 -6.1875 11.75 -6.1875 L 13.828125 -6.1875 C 14.648438 -6.1875 15.0625 -6.550781 15.0625 -7.28125 L 15.0625 -24.53125 C 15.0625 -25.257812 14.648438 -25.625 13.828125 -25.625 L 11.75 -25.625 C 10.914062 -25.625 10.5 -25.257812 10.5 -24.53125 Z M 10.5 -24.53125 "/></g></g></g><g fill="#f1f1f1" fill-opacity="1"><g transform="translate(307.873428, 235.342909)"><g><path d="M 15.21875 -31.8125 L 23.890625 -31.8125 L 23.890625 -6.140625 C 23.890625 -2.046875 21.460938 0 16.609375 0 L 9.265625 0 C 4.410156 0 1.984375 -2.046875 1.984375 -6.140625 L 1.984375 -31.8125 L 10.65625 -31.8125 L 10.65625 -7.28125 C 10.65625 -6.550781 11.066406 -6.1875 11.890625 -6.1875 L 13.984375 -6.1875 C 14.804688 -6.1875 15.21875 -6.550781 15.21875 -7.28125 Z M 15.21875 -31.8125 "/></g></g></g><g fill="#f1f1f1" fill-opacity="1"><g transform="translate(333.743025, 235.342909)"><g><path d="M 10.65625 -6.1875 L 21.515625 -6.1875 L 21.515625 0 L 1.984375 0 L 1.984375 -31.8125 L 21.0625 -31.8125 L 21.0625 -25.625 L 10.65625 -25.625 L 10.65625 -19.125 L 19.625 -19.125 L 19.625 -12.9375 L 10.65625 -12.9375 Z M 10.65625 -6.1875 "/></g></g></g></svg>